<svg xmlns="http://www.w3.org/2000/svg" viewBox="0 0 1117 368" fill="#fff">
  <path d="M3309 3615c-395-54-745-226-1003-492l-64-65-63 25c-146 59-303 87-485 87-459 1-850-223-1036-595-36-71-70-168-82-237l-7-38 144 0 143 0 22 68c77 238 300 424 600 499 48 12 110 17 217 17 216 0 347-35 539-146l90-52 20 29c181 251 316 370 541 480 352 172 758 199 1135 75 360-118 634-354 776-669 20-44 40-81 45-81 4 0 59 13 121 29 166 43 284 55 472 48 369-13 682-136 910-356 144-140 239-307 280-493l6-28 144 0 144 0-15 75c-77 410-383 767-813 949-130 55-251 91-400 118-179 32-526 28-676-8-16-4-29 9-69 68-256 388-692 642-1197 697-127 14-319 12-439-4z M1410 2140l0-120 85 0 85 0 0-625 0-625-85 0-85 0 0-110 0-110 320 0 320 0 0 110 0 110-85 0-85 0 0 700c0 774 1 757-60 779-20 7-107 11-221 11l-189 0 0-120z M545 1800c-236-43-414-209-476-447-26-100-28-277-5-378 65-274 268-436 566-452 248-13 445 74 539 238 17 30 31 59 31 66 0 6-50 32-111 58-105 44-113 46-122 29-23-44-107-112-162-133-65-24-167-29-233-12-98 27-185 117-220 230-26 85-23 256 6 341 29 86 84 156 151 193 100 56 282 47 360-19 30-25 31-29 31-105l0-79 130 0 130 0 0 150 0 150-52 41c-65 51-147 93-224 114-70 19-268 28-339 15z M2745 1784c-210-34-375-148-458-315-47-97-67-187-67-315 0-309 173-543 452-609 93-22 267-20 362 5 169 43 302 150 374 300 52 109 66 179 65 315-1 195-50 323-173 446-81 82-157 126-265 154-61 16-236 27-290 19z m218-270c68-23 138-91 173-166 27-59 29-71 29-188 0-143-18-205-80-278-74-85-211-122-330-87-162 47-243 182-233 390 9 178 87 293 228 336 45 13 165 10 213-7z M5785 1780c-99-14-169-46-235-107l-60-55 0 46c0 36-6 52-25 71-24 25-25 25-220 25l-195 0 0-115 0-114 83-3 82-3 0-630 0-630-82-3-83-3 0-109 0-110 320 0 320 0 0 110 0 110-90 0-90 0 0 175 0 176 43-25c68-39 141-56 247-56 236 0 412 104 509 300 52 106 71 195 71 333 0 249-88 448-243 548-97 63-221 87-352 69z m140-278c55-28 89-66 121-137 24-52 29-76 32-177 4-99 1-127-18-189-18-61-30-81-78-129-68-67-120-86-232-83-83 1-146 20-198 59l-34 26 4 207c4 184 6 212 26 262 36 91 99 153 182 180 43 14 152 4 195-19z M3560 1650l0-110 84 0 84 0 5-317c4-259 8-329 22-378 46-161 138-260 279-300 45-13 85-16 167-13 100 4 114 7 184 42 44 22 96 58 125 87 27 27 51 49 53 49 3 0 7-10 11-22 9-36 64-96 109-121 83-44 307-21 307 32 0 16-28 174-35 198-3 9-15 8-45-4-32-13-45-14-65-5l-25 12 0 435c0 464-2 490-48 514-13 7-98 11-226 11l-206 0 0-110 0-110 91 0 91 0-4-242c-4-291-13-325-107-419-113-113-262-115-330-5-45 72-51 129-51 484 0 349-4 380-45 396-9 3-109 6-221 6l-204 0 0-110z M7533 1745c-159-35-310-154-379-298-47-99-67-214-60-335 22-327 234-539 561-558 376-23 644 227 645 599 0 298-160 519-426 587-91 24-246 26-341 5z m321-224c134-66 205-212 192-396-8-115-38-194-97-260-81-88-187-124-310-104-133 21-228 103-273 234-49 147-22 336 65 446 91 115 279 151 423 80z M9169 1746c-113-32-212-113-263-215-15-28-27-51-29-51-1 0-1 49 1 109 5 156 12 151-213 151l-175 0 0-90 0-89 83-3 82-3 3-402 2-403-85 0-85 0 0-90 0-90 295 0 295 0 0 90 0 90-90 0-90 0 0 193c1 220 14 318 58 410 38 82 82 130 145 161 144 71 296 21 358-117 24-51 24-56 27-439l3-388 209 0 210 0 0 90 0 90-85 0-85 0 0 288c-1 325-10 403-59 501-45 87-101 145-180 183-60 29-76 32-176 35-70 1-127-2-156-11z M10500 1754c-217-42-379-200-436-424-20-78-22-240-5-325 7-33 30-96 51-140 65-135 173-228 327-282 68-23 94-27 203-27 93 0 140 4 185 18 69 20 158 66 197 100 39 35 98 115 98 134 0 11-30 33-83 61l-83 44-55-55c-71-71-144-101-249-102-90 0-140 13-203 55-76 50-131 143-151 252l-7 37 422 0 422 0-6 108c-17 279-124 453-322 523-59 21-244 35-305 23z m199-200c88-26 166-115 186-214 3-19 9-43 11-52 5-17-14-18-296-18l-300 0 6 28c20 88 94 196 158 229 83 44 153 52 235 27z M6703 914c-44-22-73-71-73-123 0-182 247-203 285-24 9 45-24 117-67 143-40 24-101 26-145 4z" transform="translate(0,368) scale(0.1,-0.1)"/>
</svg>
